<svg width="24" height="24" viewBox="0 0 24 24" fill="none" xmlns="http://www.w3.org/2000/svg">
<path d="M20 24H4C2.9 24 2 23.1 2 22C2 20.9 2.9 20 4 20H20C21.1 20 22 20.9 22 22C22 23.1 21.1 24 20 24ZM13.06 5.19L16.81 8.94L8.04 17.71C7.86 17.9 7.6 18 7.34 18H5C4.45 18 4 17.55 4 17V14.66C4 14.39 4.11 14.14 4.29 13.95L13.06 5.19ZM17.88 7.87L14.13 4.12L15.96 2.29C16.0525 2.1973 16.1624 2.12375 16.2834 2.07357C16.4043 2.02339 16.534 1.99756 16.665 1.99756C16.796 1.99756 16.9256 2.02339 17.0466 2.07357C17.1676 2.12375 17.2775 2.1973 17.37 2.29L19.71 4.63C20.1 5.02 20.1 5.65 19.71 6.04L17.88 7.87Z" fill="url(#paint0_linear_147_2103)"/>
<defs>
<linearGradient id="paint0_linear_147_2103" x1="2" y1="2" x2="22" y2="24" gradientUnits="userSpaceOnUse">
<stop stop-color="#455CEC"/>
<stop offset="1" stop-color="#0017A6"/>
</linearGradient>
</defs>
</svg>
