<svg width="28" height="28" viewBox="0 0 28 28" fill="none" xmlns="http://www.w3.org/2000/svg">
<path d="M13.9884 2.33331C7.54837 2.33331 2.33337 7.55998 2.33337 14C2.33337 20.44 7.54837 25.6666 13.9884 25.6666C20.44 25.6666 25.6667 20.44 25.6667 14C25.6667 7.55998 20.44 2.33331 13.9884 2.33331ZM22.0734 9.33331H18.6317C18.2666 7.88835 17.7259 6.49352 17.0217 5.17998C19.1498 5.91265 20.9431 7.38699 22.0734 9.33331ZM14 4.71331C14.9684 6.11331 15.7267 7.66498 16.2284 9.33331H11.7717C12.2734 7.66498 13.0317 6.11331 14 4.71331ZM4.97004 16.3333C4.78337 15.5866 4.66671 14.805 4.66671 14C4.66671 13.195 4.78337 12.4133 4.97004 11.6666H8.91337C8.82004 12.4366 8.75004 13.2066 8.75004 14C8.75004 14.7933 8.82004 15.5633 8.91337 16.3333H4.97004ZM5.92671 18.6666H9.36837C9.74171 20.125 10.2784 21.525 10.9784 22.82C8.848 22.0913 7.05351 20.6159 5.92671 18.6666V18.6666ZM9.36837 9.33331H5.92671C7.05351 7.38402 8.848 5.90864 10.9784 5.17998C10.2742 6.49352 9.73351 7.88835 9.36837 9.33331V9.33331ZM14 23.2866C13.0317 21.8866 12.2734 20.335 11.7717 18.6666H16.2284C15.7267 20.335 14.9684 21.8866 14 23.2866ZM16.73 16.3333H11.27C11.165 15.5633 11.0834 14.7933 11.0834 14C11.0834 13.2066 11.165 12.425 11.27 11.6666H16.73C16.835 12.425 16.9167 13.2066 16.9167 14C16.9167 14.7933 16.835 15.5633 16.73 16.3333ZM17.0217 22.82C17.7217 21.525 18.2584 20.125 18.6317 18.6666H22.0734C20.9431 20.613 19.1498 22.0873 17.0217 22.82V22.82ZM19.0867 16.3333C19.18 15.5633 19.25 14.7933 19.25 14C19.25 13.2066 19.18 12.4366 19.0867 11.6666H23.03C23.2167 12.4133 23.3334 13.195 23.3334 14C23.3334 14.805 23.2167 15.5866 23.03 16.3333H19.0867Z" fill="black"/>
</svg>
