<svg width="28" height="28" viewBox="0 0 28 28" fill="none" xmlns="http://www.w3.org/2000/svg">
<path d="M13.9883 2.33325C7.54825 2.33325 2.33325 7.55992 2.33325 13.9999C2.33325 20.4399 7.54825 25.6666 13.9883 25.6666C20.4399 25.6666 25.6666 20.4399 25.6666 13.9999C25.6666 7.55992 20.4399 2.33325 13.9883 2.33325ZM22.0733 9.33325H18.6316C18.2664 7.88829 17.7258 6.49346 17.0216 5.17992C19.1497 5.91259 20.9429 7.38693 22.0733 9.33325ZM13.9999 4.71325C14.9683 6.11325 15.7266 7.66492 16.2283 9.33325H11.7716C12.2733 7.66492 13.0316 6.11325 13.9999 4.71325ZM4.96992 16.3333C4.78325 15.5866 4.66659 14.8049 4.66659 13.9999C4.66659 13.1949 4.78325 12.4133 4.96992 11.6666H8.91325C8.81992 12.4366 8.74992 13.2066 8.74992 13.9999C8.74992 14.7933 8.81992 15.5633 8.91325 16.3333H4.96992ZM5.92659 18.6666H9.36825C9.74158 20.1249 10.2783 21.5249 10.9783 22.8199C8.84788 22.0913 7.05339 20.6159 5.92659 18.6666V18.6666ZM9.36825 9.33325H5.92659C7.05339 7.38396 8.84788 5.90858 10.9783 5.17992C10.2741 6.49346 9.73339 7.88829 9.36825 9.33325V9.33325ZM13.9999 23.2866C13.0316 21.8866 12.2733 20.3349 11.7716 18.6666H16.2283C15.7266 20.3349 14.9683 21.8866 13.9999 23.2866ZM16.7299 16.3333H11.2699C11.1649 15.5633 11.0833 14.7933 11.0833 13.9999C11.0833 13.2066 11.1649 12.4249 11.2699 11.6666H16.7299C16.8349 12.4249 16.9166 13.2066 16.9166 13.9999C16.9166 14.7933 16.8349 15.5633 16.7299 16.3333ZM17.0216 22.8199C17.7216 21.5249 18.2583 20.1249 18.6316 18.6666H22.0733C20.9429 20.6129 19.1497 22.0872 17.0216 22.8199V22.8199ZM19.0866 16.3333C19.1799 15.5633 19.2499 14.7933 19.2499 13.9999C19.2499 13.2066 19.1799 12.4366 19.0866 11.6666H23.0299C23.2166 12.4133 23.3333 13.1949 23.3333 13.9999C23.3333 14.8049 23.2166 15.5866 23.0299 16.3333H19.0866Z" fill="white"/>
</svg>
