<svg width="28" height="28" viewBox="0 0 28 28" fill="none" xmlns="http://www.w3.org/2000/svg">
<path d="M20.5332 11.06L22.6798 7.34999C22.8665 6.98832 22.7265 6.54499 22.3765 6.35832C22.2122 6.27266 22.0217 6.25149 21.8426 6.29898C21.6634 6.34646 21.5085 6.45917 21.4082 6.61499L19.2148 10.395C17.565 9.69631 15.7915 9.33629 13.9998 9.33629C12.2081 9.33629 10.4347 9.69631 8.78484 10.395L6.5915 6.61499C6.48545 6.45225 6.3204 6.337 6.13109 6.29348C5.94179 6.24996 5.74298 6.28157 5.5765 6.38165C5.24984 6.59165 5.14484 7.01166 5.31984 7.34999L7.4665 11.06C5.68542 12.0775 4.18023 13.5151 3.08215 15.2476C1.98406 16.9802 1.3264 18.955 1.1665 21H26.8332C26.6733 18.955 26.0156 16.9802 24.9175 15.2476C23.8194 13.5151 22.3143 12.0775 20.5332 11.06V11.06ZM8.1665 17.7917C7.77973 17.7917 7.4088 17.638 7.13531 17.3645C6.86182 17.091 6.70817 16.7201 6.70817 16.3333C6.70817 15.9465 6.86182 15.5756 7.13531 15.3021C7.4088 15.0286 7.77973 14.875 8.1665 14.875C8.55328 14.875 8.92421 15.0286 9.1977 15.3021C9.47119 15.5756 9.62484 15.9465 9.62484 16.3333C9.62484 16.7201 9.47119 17.091 9.1977 17.3645C8.92421 17.638 8.55328 17.7917 8.1665 17.7917V17.7917ZM19.8332 17.7917C19.4464 17.7917 19.0755 17.638 18.802 17.3645C18.5285 17.091 18.3748 16.7201 18.3748 16.3333C18.3748 15.9465 18.5285 15.5756 18.802 15.3021C19.0755 15.0286 19.4464 14.875 19.8332 14.875C20.2199 14.875 20.5909 15.0286 20.8644 15.3021C21.1379 15.5756 21.2915 15.9465 21.2915 16.3333C21.2915 16.7201 21.1379 17.091 20.8644 17.3645C20.5909 17.638 20.2199 17.7917 19.8332 17.7917V17.7917Z" fill="white"/>
</svg>
