<svg width="28" height="28" viewBox="0 0 28 28" fill="none" xmlns="http://www.w3.org/2000/svg">
<path d="M14 12.8333C12.7167 12.8333 11.6667 13.8833 11.6667 15.1667C11.6667 16.45 12.7167 17.5 14 17.5C15.2833 17.5 16.3333 16.45 16.3333 15.1667C16.3333 13.8833 15.2833 12.8333 14 12.8333ZM21 15.1667C20.9995 14.1738 20.7878 13.1925 20.379 12.2877C19.9702 11.3829 19.3736 10.5755 18.6288 9.91897C17.884 9.26245 17.0081 8.77188 16.0591 8.47982C15.1102 8.18777 14.1101 8.10091 13.125 8.22501C10.0683 8.59835 7.54833 11.0367 7.08167 14.0817C6.69667 16.59 7.65333 18.8767 9.33333 20.3817C9.89333 20.8833 10.7683 20.7667 11.1533 20.1133L11.165 20.1017C11.445 19.6117 11.3283 19.0167 10.9083 18.6317C10.2756 18.0673 9.80874 17.3411 9.55795 16.5311C9.30716 15.7212 9.28194 14.8582 9.485 14.035C9.68378 13.2135 10.1045 12.4623 10.7011 11.8636C11.2978 11.2649 12.0475 10.8416 12.8683 10.64C13.5563 10.4678 14.2745 10.4547 14.9682 10.6017C15.662 10.7487 16.3132 11.0519 16.8722 11.4884C17.4312 11.9248 17.8833 12.4829 18.1943 13.1202C18.5052 13.7576 18.6668 14.4575 18.6667 15.1667C18.6667 16.5433 18.06 17.7683 17.115 18.62C16.695 18.9933 16.5667 19.6 16.8467 20.09L16.8583 20.1017C17.22 20.72 18.06 20.9067 18.6083 20.4283C19.3588 19.7723 19.9605 18.9635 20.373 18.0561C20.7855 17.1486 20.9992 16.1635 21 15.1667ZM12.635 3.58168C7.245 4.18834 2.89333 8.63334 2.39166 14.035C2.19388 16.0435 2.5223 18.0689 3.34462 19.9119C4.16695 21.755 5.45485 23.3523 7.08167 24.5467C7.64166 24.955 8.435 24.78 8.785 24.185C9.07667 23.6833 8.94833 23.03 8.48167 22.68C5.82167 20.7083 4.22333 17.3717 4.795 13.6967C5.425 9.61334 8.83166 6.35835 12.9383 5.90335C18.5617 5.26168 23.3333 9.66001 23.3333 15.1667C23.3333 18.2583 21.8283 20.9767 19.5183 22.68C19.0517 23.03 18.9233 23.6717 19.215 24.185C19.565 24.7917 20.3583 24.955 20.9183 24.5467C22.3914 23.4664 23.589 22.0542 24.414 20.4244C25.239 18.7947 25.6682 16.9934 25.6667 15.1667C25.6667 8.27168 19.6817 2.77668 12.635 3.58168Z" fill="black"/>
</svg>
