<svg width="32" height="32" viewBox="0 0 32 32" fill="none" xmlns="http://www.w3.org/2000/svg">
<path d="M19.3867 23.1602C15.7781 26.0159 11.3803 27.6959 6.78675 27.9735C5.28008 28.0669 4.02675 26.8135 4.02675 25.3069V23.0002C4.01341 21.6535 5.02675 20.5202 6.37342 20.3602L9.76008 19.9735C10.5734 19.8802 11.3734 20.1602 11.9467 20.7335L14.4001 23.1869C15.4801 22.6402 16.5201 21.9869 17.4801 21.2535L2.80008 6.57352C2.67648 6.45017 2.57841 6.30365 2.5115 6.14235C2.4446 5.98106 2.41016 5.80815 2.41016 5.63352C2.41016 5.4589 2.4446 5.28599 2.5115 5.12469C2.57841 4.96339 2.67648 4.81687 2.80008 4.69352C3.32008 4.17352 4.17341 4.17352 4.69341 4.69352L27.3201 27.3335C27.4435 27.457 27.5414 27.6035 27.6082 27.7648C27.6751 27.9261 27.7094 28.0989 27.7094 28.2735C27.7094 28.4481 27.6751 28.621 27.6082 28.7822C27.5414 28.9435 27.4435 29.0901 27.3201 29.2135C27.1966 29.337 27.0501 29.4349 26.8888 29.5017C26.7275 29.5685 26.5547 29.6029 26.3801 29.6029C26.2055 29.6029 26.0326 29.5685 25.8714 29.5017C25.7101 29.4349 25.5635 29.337 25.4401 29.2135L19.3867 23.1602ZM23.1867 14.4002L20.7201 11.9335C20.4364 11.6502 20.2207 11.3062 20.089 10.9274C19.9574 10.5487 19.9133 10.1451 19.9601 9.74686L20.3467 6.38686C20.5067 5.04019 21.6401 4.02686 23.0001 4.02686H25.3067C26.8134 4.02686 28.0667 5.28019 27.9734 6.78686C27.6913 11.3898 26.0069 15.7961 23.1467 19.4135L21.2401 17.5069C21.9734 16.5335 22.6267 15.4935 23.1867 14.4002V14.4002Z" fill="black"/>
</svg>
