<svg width="28" height="28" viewBox="0 0 28 28" fill="none" xmlns="http://www.w3.org/2000/svg">
<path d="M20.5217 3.97833L17.5001 7V5.83333C17.5001 4.55 16.4501 3.5 15.1667 3.5H10.5001C7.28008 3.5 4.66675 6.11333 4.66675 9.33333H10.5001V12.8333H17.5001V9.33333L20.5217 12.355C20.8251 12.6583 21.2451 12.8333 21.6884 12.8333H21.7001C22.5984 12.8333 23.3334 12.0983 23.3334 11.1883V5.145C23.3334 4.235 22.5984 3.5 21.6884 3.5H21.6767C21.2451 3.5 20.8251 3.675 20.5217 3.97833ZM10.5001 15.1667V23.3333C10.5001 23.975 11.0251 24.5 11.6667 24.5H16.3334C16.9751 24.5 17.5001 23.975 17.5001 23.3333V15.1667H10.5001Z" fill="white"/>
</svg>
