<svg width="28" height="28" viewBox="0 0 28 28" fill="none" xmlns="http://www.w3.org/2000/svg">
<path d="M23.3333 21C24.6167 21 25.6667 19.95 25.6667 18.6667V7.00001C25.6667 5.71668 24.6167 4.66668 23.3333 4.66668H4.66667C3.38333 4.66668 2.33333 5.71668 2.33333 7.00001V18.6667C2.33333 19.95 3.38333 21 4.66667 21H1.16667C0.525 21 0 21.525 0 22.1667C0 22.8083 0.525 23.3333 1.16667 23.3333H26.8333C27.475 23.3333 28 22.8083 28 22.1667C28 21.525 27.475 21 26.8333 21H23.3333ZM5.83333 7.00001H22.1667C22.8083 7.00001 23.3333 7.52501 23.3333 8.16668V17.5C23.3333 18.1417 22.8083 18.6667 22.1667 18.6667H5.83333C5.19167 18.6667 4.66667 18.1417 4.66667 17.5V8.16668C4.66667 7.52501 5.19167 7.00001 5.83333 7.00001Z" fill="black"/>
</svg>
