<svg width="28" height="28" viewBox="0 0 28 28" fill="none" xmlns="http://www.w3.org/2000/svg">
<path d="M3.50001 12.8333C2.21667 12.8333 1.16667 13.8833 1.16667 15.1667V23.3333C1.16667 24.6167 2.21667 25.6667 3.50001 25.6667C4.78334 25.6667 5.83334 24.6167 5.83334 23.3333V15.1667C5.83334 13.8833 4.78334 12.8333 3.50001 12.8333ZM11.6667 6.18334C11.6667 4.02501 13.3583 2.33334 15.5167 2.33334C16.73 2.33334 17.9083 2.90501 18.6667 3.79168C19.425 2.90501 20.6033 2.33334 21.8167 2.33334C23.975 2.33334 25.6667 4.02501 25.6667 6.18334C25.6667 8.63334 22.75 11.445 19.4483 14.455C19.2333 14.6518 18.9523 14.7609 18.6608 14.7609C18.3693 14.7609 18.0884 14.6518 17.8733 14.455C14.5833 11.445 11.6667 8.63334 11.6667 6.18334ZM23.3217 19.8333H15.3533C15.2219 19.8328 15.0916 19.8091 14.9683 19.7633L13.2533 19.1683C13.1818 19.1435 13.1159 19.1047 13.0594 19.0542C13.003 19.0037 12.9572 18.9424 12.9246 18.874C12.892 18.8057 12.8734 18.7315 12.8697 18.6558C12.8661 18.5802 12.8775 18.5045 12.9033 18.4333C13.0083 18.13 13.3467 17.9667 13.65 18.0833L14.9567 18.585C15.085 18.6317 15.2367 18.6667 15.3767 18.6667H18.445C19.2033 18.6667 19.8217 18.0483 19.8217 17.29C19.8217 16.7183 19.46 16.205 18.9233 15.995L10.85 12.985C10.5933 12.88 10.3133 12.8333 10.0333 12.8333H8.16667V23.3567L15.5983 25.4683C16.0767 25.6083 16.59 25.585 17.0567 25.41L25.6667 22.1667C25.6667 20.8717 24.6167 19.8333 23.3217 19.8333Z" fill="#C4CEE6"/>
</svg>
