<svg width="32" height="32" viewBox="0 0 32 32" fill="none" xmlns="http://www.w3.org/2000/svg">
<path d="M16 9.33335C12.32 9.33335 9.33337 12.32 9.33337 16C9.33337 19.68 12.32 22.6667 16 22.6667C19.68 22.6667 22.6667 19.68 22.6667 16C22.6667 12.32 19.68 9.33335 16 9.33335ZM2.66671 17.3334H5.33337C6.06671 17.3334 6.66671 16.7333 6.66671 16C6.66671 15.2667 6.06671 14.6667 5.33337 14.6667H2.66671C1.93337 14.6667 1.33337 15.2667 1.33337 16C1.33337 16.7333 1.93337 17.3334 2.66671 17.3334ZM26.6667 17.3334H29.3334C30.0667 17.3334 30.6667 16.7333 30.6667 16C30.6667 15.2667 30.0667 14.6667 29.3334 14.6667H26.6667C25.9334 14.6667 25.3334 15.2667 25.3334 16C25.3334 16.7333 25.9334 17.3334 26.6667 17.3334ZM14.6667 2.66668V5.33335C14.6667 6.06668 15.2667 6.66668 16 6.66668C16.7334 6.66668 17.3334 6.06668 17.3334 5.33335V2.66668C17.3334 1.93335 16.7334 1.33335 16 1.33335C15.2667 1.33335 14.6667 1.93335 14.6667 2.66668ZM14.6667 26.6667V29.3333C14.6667 30.0667 15.2667 30.6667 16 30.6667C16.7334 30.6667 17.3334 30.0667 17.3334 29.3333V26.6667C17.3334 25.9333 16.7334 25.3333 16 25.3333C15.2667 25.3333 14.6667 25.9333 14.6667 26.6667ZM7.98671 6.10668C7.86336 5.98308 7.71684 5.88502 7.55554 5.81811C7.39424 5.7512 7.22133 5.71676 7.04671 5.71676C6.87208 5.71676 6.69917 5.7512 6.53787 5.81811C6.37658 5.88502 6.23006 5.98308 6.10671 6.10668C5.9831 6.23004 5.88504 6.37655 5.81813 6.53785C5.75122 6.69915 5.71678 6.87206 5.71678 7.04668C5.71678 7.22131 5.75122 7.39422 5.81813 7.55552C5.88504 7.71681 5.9831 7.86333 6.10671 7.98668L7.52004 9.40002C8.04004 9.92002 8.89337 9.92002 9.40004 9.40002C9.90671 8.88002 9.92004 8.02668 9.40004 7.52002L7.98671 6.10668ZM24.48 22.6C24.3567 22.4764 24.2102 22.3783 24.0489 22.3114C23.8876 22.2445 23.7147 22.2101 23.54 22.2101C23.3654 22.2101 23.1925 22.2445 23.0312 22.3114C22.8699 22.3783 22.7234 22.4764 22.6 22.6C22.4764 22.7234 22.3784 22.8699 22.3115 23.0312C22.2446 23.1925 22.2101 23.3654 22.2101 23.54C22.2101 23.7146 22.2446 23.8876 22.3115 24.0488C22.3784 24.2101 22.4764 24.3567 22.6 24.48L24.0134 25.8934C24.5334 26.4133 25.3867 26.4133 25.8934 25.8934C26.017 25.77 26.115 25.6235 26.1819 25.4622C26.2489 25.3009 26.2833 25.128 26.2833 24.9534C26.2833 24.7787 26.2489 24.6058 26.1819 24.4445C26.115 24.2832 26.017 24.1367 25.8934 24.0133L24.48 22.6ZM25.8934 7.98668C26.017 7.86333 26.115 7.71681 26.1819 7.55552C26.2489 7.39422 26.2833 7.22131 26.2833 7.04668C26.2833 6.87206 26.2489 6.69915 26.1819 6.53785C26.115 6.37655 26.017 6.23004 25.8934 6.10668C25.77 5.98308 25.6235 5.88502 25.4622 5.81811C25.3009 5.7512 25.128 5.71676 24.9534 5.71676C24.7787 5.71676 24.6058 5.7512 24.4445 5.81811C24.2832 5.88502 24.1367 5.98308 24.0134 6.10668L22.6 7.52002C22.08 8.04002 22.08 8.89335 22.6 9.40002C23.12 9.90668 23.9734 9.92002 24.48 9.40002L25.8934 7.98668ZM9.40004 24.48C9.52365 24.3567 9.62171 24.2101 9.68862 24.0488C9.75553 23.8876 9.78997 23.7146 9.78997 23.54C9.78997 23.3654 9.75553 23.1925 9.68862 23.0312C9.62171 22.8699 9.52365 22.7234 9.40004 22.6C9.27669 22.4764 9.13017 22.3783 8.96887 22.3114C8.80758 22.2445 8.63466 22.2101 8.46004 22.2101C8.28542 22.2101 8.11251 22.2445 7.95121 22.3114C7.78991 22.3783 7.64339 22.4764 7.52004 22.6L6.10671 24.0133C5.58671 24.5333 5.58671 25.3867 6.10671 25.8934C6.62671 26.4 7.48004 26.4133 7.98671 25.8934L9.40004 24.48Z" fill="#C4CEE6"/>
</svg>
