<svg width="28" height="28" viewBox="0 0 28 28" fill="none" xmlns="http://www.w3.org/2000/svg">
<path d="M18.1836 12.6327H11.6012C11.448 12.6327 11.2963 12.6628 11.1548 12.7215C11.0132 12.7801 10.8846 12.866 10.7763 12.9744C10.668 13.0827 10.582 13.2113 10.5234 13.3529C10.4648 13.4944 10.4346 13.6461 10.4346 13.7993C10.4346 13.9525 10.4648 14.1043 10.5234 14.2458C10.582 14.3873 10.668 14.516 10.7763 14.6243C10.8846 14.7326 11.0132 14.8186 11.1548 14.8772C11.2963 14.9358 11.448 14.966 11.6012 14.966H18.1836L16.8746 16.275C16.6558 16.4939 16.533 16.7908 16.5331 17.1002C16.5332 17.4097 16.6562 17.7065 16.8752 17.9252C17.0941 18.144 17.3909 18.2668 17.7004 18.2667C18.0099 18.2666 18.3067 18.1436 18.5254 17.9247L21.8247 14.6253C21.9336 14.5172 22.0201 14.3886 22.079 14.247C22.138 14.1053 22.1684 13.9534 22.1684 13.7999C22.1684 13.6465 22.138 13.4945 22.079 13.3529C22.0201 13.2112 21.9336 13.0826 21.8247 12.9745L18.5266 9.67517C18.3078 9.45625 18.0111 9.33321 17.7016 9.3331C17.3921 9.33299 17.0952 9.45582 16.8763 9.67458C16.6574 9.89334 16.5344 10.1901 16.5343 10.4996C16.5341 10.8091 16.657 11.1059 16.8757 11.3248L18.1836 12.6327ZM6.99991 3.5C6.69049 3.5 6.39375 3.62292 6.17495 3.84171C5.95616 4.0605 5.83324 4.35725 5.83324 4.66667V23.3333C5.83324 23.6428 5.95616 23.9395 6.17495 24.1583C6.39375 24.3771 6.69049 24.5 6.99991 24.5C7.30933 24.5 7.60608 24.3771 7.82487 24.1583C8.04366 23.9395 8.16658 23.6428 8.16658 23.3333V4.66667C8.16658 4.35725 8.04366 4.0605 7.82487 3.84171C7.60608 3.62292 7.30933 3.5 6.99991 3.5V3.5Z" fill="#C4CEE6"/>
</svg>
