<svg width="28" height="28" viewBox="0 0 28 28" fill="none" xmlns="http://www.w3.org/2000/svg">
<path d="M23.3335 4.66672H4.66678C3.38345 4.66672 2.33345 5.71672 2.33345 7.00005V21C2.33345 22.2834 3.38345 23.3334 4.66678 23.3334H23.3335C24.6168 23.3334 25.6668 22.2834 25.6668 21V7.00005C25.6668 5.71672 24.6168 4.66672 23.3335 4.66672ZM22.8668 9.62505L15.2368 14.3967C14.4785 14.8751 13.5218 14.8751 12.7635 14.3967L5.13345 9.62505C5.01647 9.55938 4.91402 9.47066 4.83232 9.36425C4.75062 9.25784 4.69136 9.13596 4.65812 9.00598C4.62489 8.87601 4.61837 8.74064 4.63897 8.60808C4.65956 8.47551 4.70684 8.3485 4.77795 8.23474C4.84905 8.12097 4.9425 8.02282 5.05263 7.94621C5.16277 7.86961 5.2873 7.81615 5.4187 7.78907C5.55009 7.76198 5.68561 7.76185 5.81706 7.78866C5.94851 7.81547 6.07316 7.86867 6.18345 7.94505L14.0001 12.8334L21.8168 7.94505C21.9271 7.86867 22.0517 7.81547 22.1832 7.78866C22.3146 7.76185 22.4501 7.76198 22.5815 7.78907C22.7129 7.81615 22.8375 7.86961 22.9476 7.94621C23.0577 8.02282 23.1512 8.12097 23.2223 8.23474C23.2934 8.3485 23.3407 8.47551 23.3613 8.60808C23.3819 8.74064 23.3753 8.87601 23.3421 9.00598C23.3089 9.13596 23.2496 9.25784 23.1679 9.36425C23.0862 9.47066 22.9838 9.55938 22.8668 9.62505Z" fill="#C4CEE6"/>
</svg>
