<svg width="40" height="40" viewBox="0 0 40 40" fill="none" xmlns="http://www.w3.org/2000/svg">
<path d="M30.0002 17.4667V10.0001C30.0002 8.16675 28.5002 6.66675 26.6668 6.66675H6.66683C4.8335 6.66675 3.3335 8.16675 3.3335 10.0001V30.0001C3.3335 31.8334 4.8335 33.3334 6.66683 33.3334H26.6668C28.5002 33.3334 30.0002 31.8334 30.0002 30.0001V22.5334L35.2502 27.7501C35.7668 28.2834 36.6668 27.9001 36.6668 27.1667V12.8334C36.6668 12.1001 35.7668 11.7167 35.2502 12.2501L30.0002 17.4667ZM16.6668 13.3334C18.5002 13.3334 20.0002 14.8334 20.0002 16.6667C20.0002 18.5001 18.5002 20.0001 16.6668 20.0001C14.8335 20.0001 13.3335 18.5001 13.3335 16.6667C13.3335 14.8334 14.8335 13.3334 16.6668 13.3334ZM23.3335 26.6667H10.0002V25.7167C10.0002 24.3667 10.8002 23.1667 12.0335 22.6334C13.4949 21.9956 15.0723 21.6664 16.6668 21.6664C18.2614 21.6664 19.8387 21.9956 21.3002 22.6334C21.904 22.8915 22.4186 23.3214 22.7801 23.8696C23.1416 24.4177 23.3341 25.0601 23.3335 25.7167V26.6667Z" fill="url(#paint0_linear_42_1315)"/>
<defs>
<linearGradient id="paint0_linear_42_1315" x1="3.00018" y1="7" x2="37.0002" y2="33" gradientUnits="userSpaceOnUse">
<stop stop-color="#4E64EC"/>
<stop offset="1" stop-color="#0017A6"/>
</linearGradient>
</defs>
</svg>
