<svg width="24" height="30" viewBox="0 0 24 30" fill="none" xmlns="http://www.w3.org/2000/svg">
<path d="M18.3555 19.6445H23.7266C23.5833 21.5456 23.056 23.2318 22.1445 24.7031C21.2331 26.1615 19.9635 27.3073 18.3359 28.1406C16.7083 28.974 14.7357 29.3906 12.418 29.3906C10.6341 29.3906 9.02604 29.0781 7.59375 28.4531C6.17448 27.8151 4.95703 26.9102 3.94141 25.7383C2.9388 24.5534 2.17057 23.1341 1.63672 21.4805C1.10286 19.8138 0.835938 17.9453 0.835938 15.875V13.707C0.835938 11.6367 1.10938 9.76823 1.65625 8.10156C2.20312 6.4349 2.98438 5.01562 4 3.84375C5.02865 2.65885 6.25911 1.7474 7.69141 1.10938C9.13672 0.471354 10.7513 0.152344 12.5352 0.152344C14.8529 0.152344 16.8125 0.582031 18.4141 1.44141C20.0156 2.28776 21.2591 3.45312 22.1445 4.9375C23.0299 6.42188 23.5638 8.1276 23.7461 10.0547H18.375C18.2708 8.85677 18.0104 7.84115 17.5938 7.00781C17.1901 6.17448 16.5781 5.54297 15.7578 5.11328C14.9505 4.67057 13.8763 4.44922 12.5352 4.44922C11.4935 4.44922 10.5755 4.64453 9.78125 5.03516C9 5.42578 8.34896 6.01172 7.82812 6.79297C7.30729 7.5612 6.91667 8.52474 6.65625 9.68359C6.39583 10.8294 6.26562 12.1576 6.26562 13.668V15.875C6.26562 17.3203 6.38281 18.6159 6.61719 19.7617C6.85156 20.9076 7.21615 21.8776 7.71094 22.6719C8.20573 23.4661 8.84375 24.0716 9.625 24.4883C10.4062 24.9049 11.3372 25.1133 12.418 25.1133C13.7331 25.1133 14.8008 24.9049 15.6211 24.4883C16.4544 24.0716 17.0859 23.4596 17.5156 22.6523C17.9583 21.8451 18.2383 20.8424 18.3555 19.6445Z" fill="url(#paint0_linear_35_195)"/>
<defs>
<linearGradient id="paint0_linear_35_195" x1="-1" y1="-8" x2="19.8149" y2="29.9166" gradientUnits="userSpaceOnUse">
<stop stop-color="#4E64EC"/>
<stop offset="1" stop-color="#0017A6"/>
</linearGradient>
</defs>
</svg>
